<?xml version="1.0" encoding="utf-8"?>
<!-- Generator: Adobe Illustrator 27.5.0, SVG Export Plug-In . SVG Version: 6.00 Build 0)  -->
<svg version="1.1" xmlns="http://www.w3.org/2000/svg" xmlns:xlink="http://www.w3.org/1999/xlink" x="0px" y="0px"
	 viewBox="0 0 3000 2000" style="enable-background:new 0 0 3000 2000;" xml:space="preserve">
<g id="Background">
	<rect style="fill:#FFFFFF;" width="3000" height="2000"/>
</g>
<g id="Objects">
	<g>
		<g>
			<g>
				<g>
					<path style="fill:#BBB0D6;" d="M695.924,1196.858H273.938c-5.922,0-10.741-4.818-10.741-10.74v-519.02
						c0-5.922,4.818-10.74,10.741-10.74h421.986c5.922,0,10.741,4.818,10.741,10.74v519.02
						C706.665,1192.04,701.846,1196.858,695.924,1196.858z M273.938,662.216c-2.691,0-4.882,2.19-4.882,4.882v519.02
						c0,2.691,2.191,4.882,4.882,4.882h421.986c2.692,0,4.882-2.19,4.882-4.882v-519.02c0-2.692-2.19-4.882-4.882-4.882H273.938z"/>
					<g>
						<path style="fill:#BBB0D6;" d="M330.418,710.801c0,7.721-6.259,13.981-13.98,13.981c-7.722,0-13.982-6.26-13.982-13.981
							c0-7.721,6.259-13.982,13.982-13.982C324.159,696.819,330.418,703.08,330.418,710.801z"/>
						<path style="fill:#BBB0D6;" d="M388.027,710.801c0,7.721-6.259,13.981-13.98,13.981c-7.722,0-13.982-6.26-13.982-13.981
							c0-7.721,6.259-13.982,13.982-13.982C381.768,696.819,388.027,703.08,388.027,710.801z"/>
						<path style="fill:#BBB0D6;" d="M445.636,710.801c0,7.721-6.259,13.981-13.981,13.981c-7.721,0-13.98-6.26-13.98-13.981
							c0-7.721,6.259-13.982,13.98-13.982C439.377,696.819,445.636,703.08,445.636,710.801z"/>
					</g>
					<g>
						<path style="fill:#BBB0D6;" d="M515.356,802.661H330.418c-1.618,0-2.929-1.31-2.929-2.929c0-1.618,1.311-2.929,2.929-2.929
							h184.938c1.618,0,2.929,1.311,2.929,2.929C518.286,801.351,516.975,802.661,515.356,802.661z"/>
						<path style="fill:#BBB0D6;" d="M445.636,849.313h-85.571c-1.617,0-2.929-1.312-2.929-2.929s1.313-2.929,2.929-2.929h85.571
							c1.617,0,2.929,1.312,2.929,2.929S447.253,849.313,445.636,849.313z"/>
						<path style="fill:#BBB0D6;" d="M487.178,895.963H330.418c-1.618,0-2.929-1.311-2.929-2.929c0-1.618,1.311-2.929,2.929-2.929
							h156.759c1.617,0,2.929,1.312,2.929,2.929C490.107,894.651,488.795,895.963,487.178,895.963z"/>
						<path style="fill:#BBB0D6;" d="M580.91,942.614H360.065c-1.617,0-2.929-1.312-2.929-2.93c0-1.618,1.313-2.929,2.929-2.929
							H580.91c1.617,0,2.929,1.312,2.929,2.929C583.839,941.303,582.527,942.614,580.91,942.614z"/>
						<path style="fill:#BBB0D6;" d="M540.135,989.265h-94.498c-1.619,0-2.929-1.311-2.929-2.929c0-1.618,1.311-2.929,2.929-2.929
							h94.498c1.617,0,2.929,1.311,2.929,2.929C543.065,987.953,541.752,989.265,540.135,989.265z"/>
						<path style="fill:#BBB0D6;" d="M515.356,1035.915H330.418c-1.618,0-2.929-1.312-2.929-2.929c0-1.618,1.311-2.93,2.929-2.93
							h184.938c1.618,0,2.929,1.312,2.929,2.93C518.286,1034.604,516.975,1035.915,515.356,1035.915z"/>
					</g>
				</g>
				<g>
					<path style="fill:#BBB0D6;" d="M2706.273,632.912h-606.641c-5.923,0-10.741-4.819-10.741-10.74V266.5
						c0-5.922,4.818-10.74,10.741-10.74h606.641c5.923,0,10.74,4.818,10.74,10.74v355.672
						C2717.014,628.093,2712.196,632.912,2706.273,632.912z M2099.633,261.618c-2.692,0-4.882,2.19-4.882,4.882v355.672
						c0,2.691,2.189,4.882,4.882,4.882h606.641c2.691,0,4.882-2.19,4.882-4.882V266.5c0-2.692-2.19-4.882-4.882-4.882H2099.633z"/>
					<g>
						<path style="fill:#BBB0D6;" d="M2156.113,309.866c0,7.721-6.26,13.981-13.982,13.981c-7.721,0-13.979-6.26-13.979-13.981
							c0-7.722,6.259-13.982,13.979-13.982C2149.854,295.884,2156.113,302.145,2156.113,309.866z"/>
						<path style="fill:#BBB0D6;" d="M2213.722,309.866c0,7.721-6.259,13.981-13.981,13.981c-7.722,0-13.98-6.26-13.98-13.981
							c0-7.722,6.259-13.982,13.98-13.982C2207.463,295.884,2213.722,302.145,2213.722,309.866z"/>
						<path style="fill:#BBB0D6;" d="M2271.331,309.866c0,7.721-6.26,13.981-13.982,13.981c-7.721,0-13.979-6.26-13.979-13.981
							c0-7.722,6.259-13.982,13.979-13.982C2265.071,295.884,2271.331,302.145,2271.331,309.866z"/>
					</g>
					<g>
						<path style="fill:#BBB0D6;" d="M2337.882,379.619h-184.938c-1.617,0-2.929-1.312-2.929-2.929c0-1.618,1.312-2.93,2.929-2.93
							h184.938c1.618,0,2.929,1.312,2.929,2.93C2340.811,378.308,2339.5,379.619,2337.882,379.619z"/>
						<path style="fill:#BBB0D6;" d="M2472.909,379.619h-113.94c-1.618,0-2.93-1.312-2.93-2.929c0-1.618,1.312-2.93,2.93-2.93
							h113.94c1.618,0,2.929,1.312,2.929,2.93C2475.838,378.308,2474.527,379.619,2472.909,379.619z"/>
						<path style="fill:#BBB0D6;" d="M2268.16,426.274h-85.57c-1.618,0-2.93-1.311-2.93-2.93c0-1.617,1.312-2.929,2.93-2.929h85.57
							c1.618,0,2.93,1.313,2.93,2.929C2271.09,424.963,2269.778,426.274,2268.16,426.274z"/>
						<path style="fill:#BBB0D6;" d="M2376.342,426.274h-85.57c-1.618,0-2.929-1.311-2.929-2.93c0-1.617,1.311-2.929,2.929-2.929
							h85.57c1.617,0,2.929,1.313,2.929,2.929C2379.271,424.963,2377.959,426.274,2376.342,426.274z"/>
						<path style="fill:#BBB0D6;" d="M2572.054,426.274h-173.101c-1.618,0-2.93-1.311-2.93-2.93c0-1.617,1.312-2.929,2.93-2.929
							h173.101c1.618,0,2.929,1.313,2.929,2.929C2574.982,424.963,2573.672,426.274,2572.054,426.274z"/>
						<path style="fill:#BBB0D6;" d="M2447.53,472.93h-156.759c-1.618,0-2.929-1.311-2.929-2.93c0-1.617,1.311-2.929,2.929-2.929
							h156.759c1.618,0,2.929,1.312,2.929,2.929C2450.459,471.619,2449.148,472.93,2447.53,472.93z"/>
					</g>
				</g>
			</g>
			<g>
				<g>
					<path style="fill:#765FB3;" d="M1783.812,1081.506h-240.368c-4.953,0-8.982-4.029-8.982-8.982V910.663
						c0-4.953,4.029-8.983,8.982-8.983h240.368c4.953,0,8.982,4.03,8.982,8.983v161.861
						C1792.794,1077.477,1788.765,1081.506,1783.812,1081.506z M1543.443,906.966c-2.038,0-3.696,1.658-3.696,3.696v161.861
						c0,2.038,1.658,3.696,3.696,3.696h240.368c2.038,0,3.696-1.658,3.696-3.696V910.663c0-2.038-1.658-3.696-3.696-3.696H1543.443z
						"/>
					<g>
						<path style="fill:#765FB3;" d="M1639.649,1013.078c-0.545,5.77-2.675,10.271-6.39,13.503
							c-3.714,3.231-8.654,4.848-14.82,4.848c-4.311,0-8.105-1.022-11.387-3.065c-3.281-2.042-5.813-4.945-7.595-8.71
							c-1.784-3.765-2.713-8.135-2.787-13.112v-5.053c0-5.102,0.903-9.596,2.712-13.484c1.808-3.887,4.401-6.885,7.781-8.989
							c3.381-2.105,7.287-3.158,11.721-3.158c5.968,0,10.772,1.616,14.412,4.848c3.641,3.232,5.758,7.807,6.353,13.725h-9.361
							c-0.445-3.887-1.578-6.691-3.399-8.414c-1.818-1.721-4.488-2.581-8.004-2.581c-4.086,0-7.225,1.493-9.417,4.48
							c-2.192,2.987-3.313,7.369-3.36,13.144v4.796c0,5.851,1.044,10.312,3.139,13.386c2.092,3.074,5.156,4.61,9.193,4.61
							c3.688,0,6.463-0.829,8.319-2.488c1.858-1.659,3.034-4.422,3.529-8.284H1639.649z"/>
						<path style="fill:#765FB3;" d="M1676.313,1016.756c0-2.378-0.835-4.21-2.507-5.498c-1.671-1.287-4.688-2.587-9.045-3.9
							c-4.358-1.313-7.826-2.773-10.401-4.383c-4.929-3.096-7.393-7.133-7.393-12.11c0-4.358,1.777-7.949,5.331-10.773
							c3.553-2.823,8.166-4.234,13.837-4.234c3.764,0,7.12,0.693,10.066,2.08c2.947,1.388,5.263,3.362,6.947,5.926
							c1.684,2.563,2.526,5.404,2.526,8.524h-9.362c0-2.823-0.886-5.033-2.655-6.63c-1.771-1.597-4.304-2.396-7.597-2.396
							c-3.071,0-5.454,0.657-7.15,1.969c-1.696,1.312-2.545,3.145-2.545,5.497c0,1.982,0.916,3.635,2.749,4.959
							c1.833,1.326,4.854,2.613,9.064,3.863c4.208,1.25,7.589,2.675,10.14,4.271c2.552,1.598,4.421,3.431,5.61,5.498
							c1.188,2.068,1.782,4.489,1.782,7.263c0,4.507-1.727,8.092-5.182,10.754c-3.455,2.661-8.143,3.993-14.061,3.993
							c-3.913,0-7.51-0.725-10.791-2.173c-3.282-1.449-5.832-3.449-7.651-5.999c-1.82-2.551-2.729-5.523-2.729-8.916h9.397
							c0,3.071,1.014,5.448,3.046,7.133c2.029,1.684,4.94,2.525,8.729,2.525c3.27,0,5.727-0.662,7.374-1.987
							C1675.488,1020.688,1676.313,1018.935,1676.313,1016.756z"/>
						<path style="fill:#765FB3;" d="M1722.226,1016.756c0-2.378-0.835-4.21-2.507-5.498c-1.672-1.287-4.688-2.587-9.045-3.9
							c-4.358-1.313-7.826-2.773-10.4-4.383c-4.93-3.096-7.394-7.133-7.394-12.11c0-4.358,1.777-7.949,5.331-10.773
							c3.553-2.823,8.166-4.234,13.837-4.234c3.765,0,7.12,0.693,10.066,2.08c2.947,1.388,5.263,3.362,6.947,5.926
							c1.684,2.563,2.526,5.404,2.526,8.524h-9.362c0-2.823-0.886-5.033-2.655-6.63c-1.771-1.597-4.304-2.396-7.597-2.396
							c-3.071,0-5.454,0.657-7.15,1.969c-1.696,1.312-2.545,3.145-2.545,5.497c0,1.982,0.917,3.635,2.749,4.959
							c1.833,1.326,4.854,2.613,9.064,3.863c4.209,1.25,7.589,2.675,10.141,4.271c2.55,1.598,4.42,3.431,5.609,5.498
							c1.188,2.068,1.782,4.489,1.782,7.263c0,4.507-1.727,8.092-5.182,10.754c-3.454,2.661-8.142,3.993-14.061,3.993
							c-3.913,0-7.51-0.725-10.79-2.173c-3.283-1.449-5.833-3.449-7.652-5.999c-1.82-2.551-2.729-5.523-2.729-8.916h9.397
							c0,3.071,1.014,5.448,3.046,7.133c2.03,1.684,4.94,2.525,8.729,2.525c3.27,0,5.727-0.662,7.374-1.987
							C1721.402,1020.688,1722.226,1018.935,1722.226,1016.756z"/>
					</g>
					<g>
						<path style="fill:#765FB3;" d="M1621.601,928.445c0,3.939-3.192,7.132-7.133,7.132c-3.938,0-7.131-3.193-7.131-7.132
							c0-3.939,3.193-7.133,7.131-7.133C1618.408,921.313,1621.601,924.506,1621.601,928.445z"/>
						<path style="fill:#765FB3;" d="M1597.827,928.445c0,3.939-3.193,7.132-7.132,7.132c-3.939,0-7.132-3.193-7.132-7.132
							c0-3.939,3.192-7.133,7.132-7.133C1594.634,921.313,1597.827,924.506,1597.827,928.445z"/>
						<path style="fill:#765FB3;" d="M1574.054,928.445c0,3.939-3.193,7.132-7.132,7.132c-3.94,0-7.133-3.193-7.133-7.132
							c0-3.939,3.192-7.133,7.133-7.133C1570.86,921.313,1574.054,924.506,1574.054,928.445z"/>
					</g>
				</g>
				<g>
					<path style="fill:#765FB3;" d="M627.293,453.646H386.926c-4.953,0-8.983-4.03-8.983-8.982V282.803
						c0-4.953,4.03-8.983,8.983-8.983h240.368c4.953,0,8.983,4.03,8.983,8.983v161.861
						C636.276,449.616,632.247,453.646,627.293,453.646z M386.926,279.106c-2.039,0-3.697,1.658-3.697,3.696v161.861
						c0,2.038,1.658,3.696,3.697,3.696h240.368c2.038,0,3.696-1.658,3.696-3.696V282.803c0-2.038-1.658-3.696-3.696-3.696H386.926z"
						/>
					<g>
						<path style="fill:#765FB3;" d="M458.05,402.826h-9.361v-23.997h-24.183v23.997h-9.397V348.74h9.397v22.51h24.183v-22.51h9.361
							V402.826z"/>
						<path style="fill:#765FB3;" d="M507.158,356.317h-16.865v46.508h-9.324v-46.508h-16.716v-7.577h42.905V356.317z"/>
						<path style="fill:#765FB3;" d="M526.437,348.74l15.601,41.456l15.565-41.456h12.147v54.086h-9.362v-17.831l0.928-23.849
							l-15.973,41.679h-6.724l-15.936-41.642l0.93,23.811v17.831h-9.361V348.74H526.437z"/>
						<path style="fill:#765FB3;" d="M590.255,395.322h24.554v7.503h-33.953V348.74h9.399V395.322z"/>
					</g>
					<g>
						<path style="fill:#765FB3;" d="M465.083,300.585c0,3.939-3.193,7.132-7.132,7.132c-3.939,0-7.132-3.193-7.132-7.132
							c0-3.939,3.193-7.133,7.132-7.133C461.89,293.453,465.083,296.647,465.083,300.585z"/>
						<path style="fill:#765FB3;" d="M441.31,300.585c0,3.939-3.193,7.132-7.133,7.132c-3.938,0-7.131-3.193-7.131-7.132
							c0-3.939,3.193-7.133,7.131-7.133C438.117,293.453,441.31,296.647,441.31,300.585z"/>
						<path style="fill:#765FB3;" d="M417.535,300.585c0,3.939-3.192,7.132-7.132,7.132c-3.939,0-7.131-3.193-7.131-7.132
							c0-3.939,3.193-7.133,7.131-7.133C414.343,293.453,417.535,296.647,417.535,300.585z"/>
					</g>
				</g>
				<g>
					<path style="fill:#765FB3;" d="M1878.047,509.661H1637.68c-4.953,0-8.983-4.03-8.983-8.982V338.818
						c0-4.953,4.03-8.983,8.983-8.983h240.367c4.954,0,8.983,4.03,8.983,8.983v161.861
						C1887.03,505.631,1883.001,509.661,1878.047,509.661z M1637.68,335.122c-2.039,0-3.697,1.658-3.697,3.696v161.861
						c0,2.038,1.658,3.696,3.697,3.696h240.367c2.039,0,3.697-1.658,3.697-3.696V338.818c0-2.038-1.658-3.696-3.697-3.696H1637.68z"
						/>
					<g>
						<path style="fill:#765FB3;" d="M1737.414,441.233c-0.545,5.771-2.674,10.272-6.389,13.503
							c-3.716,3.232-8.655,4.848-14.821,4.848c-4.31,0-8.104-1.022-11.386-3.065c-3.281-2.042-5.813-4.946-7.597-8.71
							c-1.783-3.765-2.712-8.135-2.786-13.113v-5.052c0-5.102,0.904-9.596,2.712-13.484c1.808-3.887,4.401-6.885,7.782-8.989
							c3.38-2.105,7.287-3.158,11.72-3.158c5.969,0,10.772,1.616,14.413,4.848c3.641,3.232,5.757,7.807,6.352,13.725h-9.36
							c-0.446-3.887-1.579-6.691-3.399-8.413c-1.819-1.722-4.488-2.582-8.005-2.582c-4.086,0-7.225,1.493-9.417,4.48
							c-2.191,2.987-3.313,7.369-3.362,13.144v4.796c0,5.85,1.047,10.311,3.14,13.385s5.157,4.61,9.194,4.61
							c3.689,0,6.464-0.829,8.32-2.488c1.857-1.659,3.033-4.421,3.529-8.284H1737.414z"/>
						<path style="fill:#765FB3;" d="M1765.794,429.086h14.116v8.247h-14.116v16.085h-8.767v-16.085h-14.189v-8.247h14.189v-15.044
							h8.767V429.086z"/>
						<path style="fill:#765FB3;" d="M1808.179,429.086h14.115v8.247h-14.115v16.085h-8.768v-16.085h-14.189v-8.247h14.189v-15.044
							h8.768V429.086z"/>
					</g>
					<g>
						<path style="fill:#765FB3;" d="M1715.837,356.601c0,3.939-3.192,7.132-7.133,7.132c-3.938,0-7.132-3.193-7.132-7.132
							c0-3.939,3.194-7.133,7.132-7.133C1712.645,349.468,1715.837,352.662,1715.837,356.601z"/>
						<path style="fill:#765FB3;" d="M1692.063,356.601c0,3.939-3.192,7.132-7.132,7.132c-3.938,0-7.132-3.193-7.132-7.132
							c0-3.939,3.193-7.133,7.132-7.133C1688.87,349.468,1692.063,352.662,1692.063,356.601z"/>
						<path style="fill:#765FB3;" d="M1668.289,356.601c0,3.939-3.193,7.132-7.131,7.132c-3.94,0-7.133-3.193-7.133-7.132
							c0-3.939,3.192-7.133,7.133-7.133C1665.096,349.468,1668.289,352.662,1668.289,356.601z"/>
					</g>
				</g>
				<g>
					<path style="fill:#765FB3;" d="M1693.045,644.92c0,3.683-2.984,6.667-6.666,6.667h-252.776c-3.682,0-6.667-2.984-6.667-6.667
						V474.705c0-3.682,2.985-6.667,6.667-6.667h252.776c3.682,0,6.666,2.985,6.666,6.667V644.92z"/>
					<g>
						<g>
							<path style="fill:#FFFFFF;" d="M1490.824,572.923l35.532,13.489v14.635l-50.409-22.463V566.96l50.409-22.403v14.635
								L1490.824,572.923z"/>
							<path style="fill:#FFFFFF;" d="M1546.471,618.452h-11.503l34.508-95.214h11.503L1546.471,618.452z"/>
							<path style="fill:#FFFFFF;" d="M1628.556,572.621l-37.218-13.67v-14.394l52.033,22.403v11.624l-52.033,22.403v-14.394
								L1628.556,572.621z"/>
						</g>
						<g>
							<path style="fill:#FFFFFF;" d="M1515.794,493.405c0,4.142-3.357,7.501-7.5,7.501s-7.5-3.359-7.5-7.501
								c0-4.143,3.357-7.5,7.5-7.5S1515.794,489.262,1515.794,493.405z"/>
							<path style="fill:#FFFFFF;" d="M1490.793,493.405c0,4.142-3.357,7.501-7.5,7.501c-4.142,0-7.5-3.359-7.5-7.501
								c0-4.143,3.358-7.5,7.5-7.5C1487.436,485.904,1490.793,489.262,1490.793,493.405z"/>
							<path style="fill:#FFFFFF;" d="M1465.792,493.405c0,4.142-3.357,7.501-7.5,7.501c-4.142,0-7.5-3.359-7.5-7.501
								c0-4.143,3.358-7.5,7.5-7.5C1462.435,485.904,1465.792,489.262,1465.792,493.405z"/>
						</g>
					</g>
				</g>
			</g>
		</g>
		<g>
			<g>
				<path style="fill:#492D91;" d="M832.807,915.648c-138.547,44.36-239.212,76.952-267.829,105.569
					c-28.617,28.616-148.373,416.203-171.691,558.229C533.193,1590.046,704.108,1646,780.821,1701c100.031,0,491.443,0,491.443,0
					c-10.91-82-11.21-207.043-11.21-321.511c76.124,148.385,168.26,261.917,215.685,314.201
					c49.815-49.815,92.97-108.8,109.928-159.675c-67.833-146.266-220.609-501.833-277.656-530.336
					c-47.559-23.763-104.944-47.107-191.458-75.603C1005.901,928.077,901.351,915.648,832.807,915.648z"/>
				<path style="opacity:0.15;" d="M707.524,1264.916c5.865,138.305,21.41,238.643,21.41,319.195
					c-43.808-21.198-60.71-44.031-76.406-59.727C664.776,1473.75,699.801,1323.553,707.524,1264.916z"/>
				<g>
					<path style="fill:#36216B;" d="M1261.354,1379.197c-2.523-24.486-3.405-49.174-3.892-73.775
						c-0.54-27.305-0.364-54.64,0.637-81.933c0.637-17.36,1.549-34.75,3.354-52.032c2.54,24.488,3.408,49.174,3.9,73.775
						c0.547,27.305,0.347,54.643-0.658,81.934C1264.056,1344.525,1263.156,1361.916,1261.354,1379.197z"/>
					<path style="fill:#36216B;" d="M646.969,1546.66c4.455-23.221,9.395-46.348,14.207-69.496
						c5.53-26.604,11.217-53.175,16.785-79.77c5.661-27.043,11.338-54.094,16.497-81.237c5.053-26.587,10.05-53.158,14.415-79.869
						c2.158-13.207,4.19-26.46,5.693-39.757c0.717-6.342,1.51-12.665,1.995-19.028c0.333-4.372,0.696-8.741,1.067-13.11
						c0.116,4.388,0.225,8.775,0.301,13.164c0.103,5.988-0.128,11.968-0.356,17.951c-0.485,12.706-1.543,25.379-2.859,38.023
						c-2.801,26.914-6.84,53.697-11.574,80.337c-4.851,27.302-10.531,54.426-16.436,81.515
						c-5.754,26.402-12.276,52.667-19.147,78.799c-6.194,23.56-12.715,47.046-19.918,70.318
						C647.415,1545.22,647.192,1545.94,646.969,1546.66z"/>
				</g>
			</g>
			<g>
				<path style="fill:#302B3D;" d="M899.329,795.702c-44.708-98.827-118.725-194.714-86.959-288.835
					c31.766-94.122,76.174-147.987,159.707-157.399c83.532-9.412,249.388,22.724,299.611,14.265
					c74.514-12.55,31.97,158.524-52.739,207.937C1104.827,663.441,985.214,745.11,899.329,795.702z"/>
				<path style="fill:#ED9772;" d="M1042.668,461.295c-48.237,0-39.997,139.911-118.632,157.93
					c-10.588-32.944-33.624-52.448-54.801-20.682c-21.177,31.766-12.26,114.214,45.39,84.801
					c0,50.589-37.061,207.067-81.769,231.773c72.374,107.956,230.299,213.945,284.717,12.94
					c-18.236-9.607-9.012-55.948-4.314-77.649c44.904,3.823,103.156-7.06,126.687-163.535
					c23.531-156.477,5.651-216.479-21.177-216.479C1184.649,470.396,1100.317,461.295,1042.668,461.295z"/>
				<g>
					<path style="fill:#D17954;" d="M917.956,642.166c-10.589-18.823-22.399-38.086-33.772-22.008
						c-11.374,16.077,4.752,63.186,29.852,41.225C909.134,656.483,910.31,649.813,917.956,642.166z"/>
					<path style="fill:#D17954;" d="M1145.029,701.088c11.247,1.923,24.036,3.461,34.463-2.354c5.137-2.864,9.52-8.119,9.177-14.303
						c-0.161-2.905-1.481-5.674-3.622-7.644c-1.597-1.468-3.605-2.463-5.438-3.592c-7.533-4.644-15.102-10.48-19.957-18.001
						c-2.377-3.683-4.345-7.602-5.508-11.847c-0.955-3.486-1.376-6.984-1.601-10.581c1.313,5.411,2.902,10.599,5.711,15.451
						c3.221,5.564,7.712,10.276,12.748,14.234c2.634,2.07,5.4,3.947,8.24,5.723c2.349,1.469,4.815,2.769,7.107,4.325
						c5.181,3.517,7.445,10.003,6.079,16.029c-2.189,9.659-11.667,14.905-20.809,16.245
						C1162.552,706.101,1153.558,704.046,1145.029,701.088z"/>
					<path style="fill:#D17954;" d="M1109.114,737.618c21.961,9.601,48.591,19.927,71.408,6.834
						c3.662-2.101,7.067-4.465,10.555-6.834c-2.77,4.974-6.2,9.207-10.63,12.8c-4.311,3.495-9.846,6.29-15.308,7.413
						c-5.952,1.222-11.826,1.536-17.861,0.682c-6.491-0.917-12.769-3.03-18.63-5.947c-3.957-1.969-7.714-4.354-11.213-7.05
						C1114.448,743.214,1111.424,740.622,1109.114,737.618z"/>
					<path style="fill:#302B3D;" d="M1165.421,578.047c-4.195-9.691,8.093-15.882,36.526-13.922
						c28.433,1.96,33.531,8.629,31.962,16.472c-1.569,7.842-6.079,0-31.962,0C1188.417,580.596,1170.769,590.4,1165.421,578.047z"/>
					<path style="fill:#302B3D;" d="M1074.739,630.08c0,6.847,4.894,12.398,10.932,12.398c6.038,0,10.931-5.552,10.931-12.398
						c0-6.849-4.893-12.4-10.931-12.4C1079.633,617.679,1074.739,623.231,1074.739,630.08z"/>
					<path style="fill:#302B3D;" d="M1195.269,632.194c0,6.847,4.894,12.398,10.932,12.398c6.038,0,10.931-5.552,10.931-12.398
						c0-6.849-4.893-12.4-10.931-12.4C1200.163,619.794,1195.269,625.346,1195.269,632.194z"/>
					<path style="fill:#D17954;" d="M1062.336,608.747c5.335-4.305,12.586-6.377,19.374-6.454c3.686-0.042,7.329,0.464,10.826,1.641
						c2.805,0.944,5.931,2.477,7.841,4.813c-6.256-0.313-12.623-0.448-18.879-0.108c-3.451,0.167-6.91,0.183-10.362,0.301
						C1068.241,609.039,1065.212,609.144,1062.336,608.747z"/>
					<path style="fill:#302B3D;" d="M1117.491,575.693c4.196-9.69-8.093-15.882-36.526-13.921
						c-28.432,1.96-38.237,8.628-36.668,16.472c1.569,7.843,10.785,0,36.668,0C1094.495,578.243,1112.143,588.048,1117.491,575.693z
						"/>
					<path style="fill:#D17954;" d="M972.077,780.994c12.725,39.669,62.604,99.292,135.295,104.669
						c1.227-13.07,3.942-26.272,5.886-35.253C1092.865,848.057,1011.292,839.036,972.077,780.994z"/>
					<path style="fill:#D17954;" d="M1220.576,611.101c-2.876,0.397-5.905,0.291-8.8,0.192c-3.451-0.119-6.911-0.133-10.361-0.301
						c-6.256-0.34-12.623-0.205-18.879,0.109c1.847-2.258,4.811-3.721,7.499-4.695c3.456-1.251,7.121-1.758,10.785-1.762
						C1207.726,604.637,1215.146,606.719,1220.576,611.101z"/>
				</g>
			</g>
			<g>
				<path style="fill:#362D4D;" d="M1326,1693.618c0-3.655-2.963-6.618-6.618-6.618H921.618c-3.655,0-6.618,2.963-6.618,6.618v0.764
					c0,3.655,2.963,6.618,6.618,6.618h397.764c3.655,0,6.618-2.963,6.618-6.618V1693.618z"/>
				<g>
					<path style="fill:#FFE8A6;" d="M981.266,1651.459c2.553,5.269,9.304,33.773,5.489,35.623s-22.012-21.107-24.564-26.376
						l-128.524-265.142c-2.554-5.269-0.352-11.607,4.914-14.161l0,0c5.268-2.555,11.607-0.354,14.161,4.914L981.266,1651.459z"/>
					<g>
						<path style="fill:#ED9772;" d="M392.934,1579.799c-10.24,49.2,46.296,121.201,73.146,121.201c26.851,0,444.45,0,444.45,0
							c7.949,0,37.759,0.865,26.365-24.572c15.192,9.188,35.374,12.512,29.014-21.405c20.668,11.659,37.361,4.069,26.232-25.608
							c-11.129-29.676-82.545-155.237-127.187-128.642c-35.305,21.032-61.458,46.75-74.177,59.468
							c-36.743-8.479-142.042-52.622-202.456-58.981C527.907,1494.899,415.885,1469.524,392.934,1579.799z"/>
						<g>
							<path style="fill:#D17954;" d="M965.909,1654.859c-3.411-4.025-6.568-8.254-9.951-12.298
								c-4.152-4.962-8.118-10.077-12.186-15.107c-8.663-10.708-17.101-21.599-25.571-32.46c-6.5-8.333-12.844-16.784-19.274-25.172
								c-5.352-6.98-10.759-13.942-15.955-21.04c9.02,7.573,17.26,15.941,25.109,24.713c9.083,10.151,17.675,20.705,25.896,31.564
								C945.886,1620.793,957.057,1637.192,965.909,1654.859z"/>
							<path style="fill:#D17954;" d="M936.894,1676.102c-8.863-7.967-17.136-16.596-25.74-24.837
								c-9.83-9.416-19.541-18.955-29.417-28.321c-10.019-9.503-20.141-19.03-29.449-29.24
								c10.167,6.354,19.773,13.576,29.003,21.216c10.357,8.574,20.342,17.766,29.415,27.698
								C920.308,1653.13,929.238,1664.074,936.894,1676.102z"/>
							<path style="fill:#D17954;" d="M910.529,1700.346c-11.361-4.246-21.251-11.395-30.722-18.847
								c-10.739-8.45-21.082-17.408-31.533-26.21c-8.593-7.238-17.499-14.104-26.07-21.362
								c23.645,10.325,43.517,27.139,62.454,44.33c4.52,4.104,9.057,8.187,13.602,12.263
								C902.172,1694.029,906.343,1697.183,910.529,1700.346z"/>
							<path style="fill:#D17954;" d="M848.348,1700.346c-9.474-1.287-18.585-5.134-26.858-9.824
								c-8.195-4.753-16.412-10.087-22.78-17.203c8.671,2.399,16.98,6.728,24.809,11.076c4.622,2.566,9.177,5.257,13.626,8.114
								C840.959,1694.959,844.849,1697.456,848.348,1700.346z"/>
							<path style="fill:#D17954;" d="M762.144,1633.927c-4.285-24.531,3.33-52.02,22.357-68.774
								c2.007-1.768,4.083-3.402,6.277-4.93c-3.086,4.825-6.369,9.504-9.25,14.462c-3.25,5.593-6.155,11.417-8.546,17.43
								c-4.83,12.143-7.729,24.872-10.013,37.709C762.724,1631.197,762.447,1632.563,762.144,1633.927z"/>
						</g>
					</g>
				</g>
			</g>
		</g>
		<path style="fill:#534970;" d="M2770,1747.024c0,3.3-2.676,5.976-5.978,5.976H235.977c-3.301,0-5.977-2.676-5.977-5.976v-42.049
			c0-3.3,2.676-5.976,5.977-5.976h2528.045c3.302,0,5.978,2.676,5.978,5.976V1747.024z"/>
		<g>
			<g>
				<path style="fill:#BBB0D6;" d="M2714.581,1693.842c0,3.631-2.943,6.574-6.574,6.574h-202.173c-3.63,0-6.574-2.943-6.574-6.574
					v-241.612c0-3.632,2.944-6.575,6.574-6.575h202.173c3.631,0,6.574,2.943,6.574,6.575V1693.842z"/>
				<path style="fill:#765FB3;" d="M2651.641,1693.842c0,3.631-2.944,6.574-6.576,6.574h-202.171c-3.631,0-6.574-2.943-6.574-6.574
					v-241.612c0-3.632,2.943-6.575,6.574-6.575h202.171c3.632,0,6.576,2.943,6.576,6.575V1693.842z"/>
				<g>
					<g>
						<path style="fill:#BBB0D6;" d="M2621.742,1512.02h-155.523c-2.271,0-4.109-1.84-4.109-4.108c0-2.271,1.839-4.109,4.109-4.109
							h155.523c2.268,0,4.107,1.839,4.107,4.109C2625.85,1510.18,2624.01,1512.02,2621.742,1512.02z"/>
						<path style="fill:#BBB0D6;" d="M2621.742,1541.605h-155.523c-2.271,0-4.109-1.84-4.109-4.109s1.839-4.109,4.109-4.109h155.523
							c2.268,0,4.107,1.84,4.107,4.109S2624.01,1541.605,2621.742,1541.605z"/>
						<path style="fill:#BBB0D6;" d="M2528.621,1571.191h-62.402c-2.271,0-4.109-1.838-4.109-4.109c0-2.27,1.839-4.109,4.109-4.109
							h62.402c2.268,0,4.107,1.84,4.107,4.109C2532.729,1569.354,2530.889,1571.191,2528.621,1571.191z"/>
						<path style="fill:#BBB0D6;" d="M2528.621,1600.778h-62.402c-2.271,0-4.109-1.84-4.109-4.109s1.839-4.109,4.109-4.109h62.402
							c2.268,0,4.107,1.84,4.107,4.109S2530.889,1600.778,2528.621,1600.778z"/>
					</g>
					<g>
						<path style="fill:#BBB0D6;" d="M2610.584,1473.394c0,4.539,3.68,8.218,8.219,8.218c4.538,0,8.219-3.679,8.219-8.218
							c0-4.54-3.681-8.219-8.219-8.219C2614.264,1465.175,2610.584,1468.854,2610.584,1473.394z"/>
						<path style="fill:#BBB0D6;" d="M2584.766,1473.394c0,4.539,3.68,8.218,8.22,8.218c4.539,0,8.218-3.679,8.218-8.218
							c0-4.54-3.679-8.219-8.218-8.219C2588.445,1465.175,2584.766,1468.854,2584.766,1473.394z"/>
						<path style="fill:#BBB0D6;" d="M2558.949,1473.394c0,4.539,3.679,8.218,8.219,8.218c4.539,0,8.218-3.679,8.218-8.218
							c0-4.54-3.679-8.219-8.218-8.219C2562.628,1465.175,2558.949,1468.854,2558.949,1473.394z"/>
					</g>
				</g>
			</g>
			<g>
				<path style="fill:#241E33;" d="M1362,1680.366c0-2.411-1.955-4.366-4.366-4.366h-273.268c-2.411,0-4.366,1.955-4.366,4.366
					v15.268c0,2.411,1.955,4.366,4.366,4.366h273.268c2.411,0,4.366-1.955,4.366-4.366V1680.366z"/>
				<path style="fill:#362D4D;" d="M1300.918,1688.764c-1.31,5.895,0.601,12.236,8.174,12.236c7.572,0,546.376,0,552.654,0
					s11.332-3.126,12.826-9.754c1.495-6.627,79.49-352.518,80.277-356.096c1.598-7.287-2.496-11.15-9.956-11.15
					c-5.549,0-548.333,0-552.153,0c-6.277,0-10.326,3.313-11.599,8.957C1379.868,1338.605,1302.229,1682.868,1300.918,1688.764z"/>
				<path style="fill:#443961;" d="M1598.746,1511.193c0,16.081,13.036,29.118,29.119,29.118c16.08,0,29.118-13.037,29.118-29.118
					c0-16.08-13.038-29.119-29.118-29.119C1611.782,1482.074,1598.746,1495.113,1598.746,1511.193z"/>
				<path style="opacity:0.1;" d="M1338.087,1701c113.151,0,518.222,0,523.659,0c6.277,0,11.332-3.126,12.826-9.754
					c1.318-5.842,62.082-275.315,77.001-341.537L1338.087,1701z"/>
			</g>
			<g>
				<path style="fill:#534970;" d="M2508.033,1507.837c0,8.196-6.643,15.163-14.839,15.163H1816.98
					c-8.195,0-14.838-6.967-14.838-15.163l112.349-943.653c0-8.194,6.643-15.184,14.839-15.184h676.213
					c8.195,0,14.839,6.989,14.839,15.184L2508.033,1507.837z"/>
				<path style="fill:#282138;" d="M2546.189,1507.837c0,8.196-6.643,15.163-14.839,15.163h-676.214
					c-8.195,0-14.838-6.967-14.838-15.163l112.349-943.653c0-8.194,6.644-15.184,14.839-15.184H2643.7
					c8.196,0,14.838,6.989,14.838,15.184L2546.189,1507.837z"/>
				<g>
					<path style="fill:#534970;" d="M1923.642,1475.939c0,8.647-7.01,15.657-15.656,15.657c-8.647,0-15.657-7.01-15.657-15.657
						c0-8.646,7.01-15.656,15.657-15.656C1916.632,1460.283,1923.642,1467.293,1923.642,1475.939z"/>
					<path style="fill:#534970;" d="M1963.29,1475.939c0,4.268-3.46,7.728-7.728,7.728s-7.727-3.46-7.727-7.728
						s3.459-7.727,7.727-7.727S1963.29,1471.672,1963.29,1475.939z"/>
					<path style="fill:#534970;" d="M1989.722,1475.939c0,4.268-3.46,7.728-7.728,7.728c-4.267,0-7.727-3.46-7.727-7.728
						s3.46-7.727,7.727-7.727C1986.262,1468.213,1989.722,1471.672,1989.722,1475.939z"/>
				</g>
				<g>
					<path style="fill:#362D4D;" d="M2346.929,1051.799c0-8.195-6.644-14.799-14.838-14.799h-163.224
						c-8.196,0-14.84,6.783-14.84,14.979L2133.43,1668h-136.508c-4.088,0-6.922,2.954-6.922,7.042v17.974
						c0,4.088,2.834,7.984,6.922,7.984h150.746h56.48h149.141c8.194,0,14.838-6.796,14.838-14.991L2346.929,1051.799z"/>
					<g>
						<path style="fill:#534970;" d="M2133.311,1668.17c5.881-1.801,12.396-2.111,18.502-2.114
							c6.107-0.004,12.624,0.304,18.503,2.114c-5.879,1.81-12.396,2.117-18.503,2.113
							C2145.706,1670.279,2139.191,1669.97,2133.311,1668.17z"/>
						<path style="fill:#534970;" d="M2174.197,1048.748c0,0-0.875,38.719-2.19,96.796c-1.383,58.076-3.228,135.511-5.072,212.946
							c-1.962,77.431-3.925,154.863-5.397,212.938c-1.541,58.071-2.568,96.786-2.568,96.786c-0.027,0.996-0.856,1.783-1.853,1.757
							c-0.998-0.026-1.784-0.85-1.758-1.846c0,0,0.887-38.719,2.217-96.796c1.4-58.076,3.267-135.509,5.133-212.943
							c1.984-77.432,3.969-154.863,5.458-212.937c1.557-58.072,2.596-96.786,2.596-96.786c0.025-0.948,0.815-1.697,1.764-1.673
							C2173.475,1047.017,2174.224,1047.799,2174.197,1048.748z"/>
					</g>
				</g>
			</g>
		</g>
	</g>
</g>
</svg>
